<?xml version="1.0" encoding="iso-8859-1"?>
<!-- Generator: Adobe Illustrator 19.0.0, SVG Export Plug-In . SVG Version: 6.00 Build 0)  -->
<svg version="1.1" id="Layer_1" xmlns="http://www.w3.org/2000/svg" xmlns:xlink="http://www.w3.org/1999/xlink" x="0px" y="0px"
	 viewBox="0 0 455 455" style="enable-background:new 0 0 455 455;" xml:space="preserve">
<g>
	<polygon points="395,52.5 278.333,52.5 278.333,12.5 248.333,12.5 248.333,52.5 146.667,52.5 146.667,12.5 116.667,12.5 
		116.667,52.5 0,52.5 0,117.5 395,117.5 	"/>
	<polygon points="425,112.5 425,382.5 425,412.5 395,412.5 60,412.5 60,442.5 455,442.5 455,112.5 	"/>
	<path d="M395,147.5H0v235h395V147.5z M132.5,335h-50v-50h50V335z M132.5,245h-50v-50h50V245z M222.5,335h-50v-50h50V335z
		 M222.5,245h-50v-50h50V245z M312.5,335h-50v-50h50V335z M312.5,245h-50v-50h50V245z"/>
</g>
<g>
</g>
<g>
</g>
<g>
</g>
<g>
</g>
<g>
</g>
<g>
</g>
<g>
</g>
<g>
</g>
<g>
</g>
<g>
</g>
<g>
</g>
<g>
</g>
<g>
</g>
<g>
</g>
<g>
</g>
</svg>
